<svg width="24" height="25" viewBox="0 0 24 25" fill="none" xmlns="http://www.w3.org/2000/svg">
<path d="M9.5 14.7065C9.5 15.6765 10.25 16.4565 11.17 16.4565H13.05C13.85 16.4565 14.5 15.7765 14.5 14.9265C14.5 14.0165 14.1 13.6865 13.51 13.4765L10.5 12.4265C9.91 12.2165 9.51001 11.8965 9.51001 10.9765C9.51001 10.1365 10.16 9.44653 10.96 9.44653H12.84C13.76 9.44653 14.51 10.2265 14.51 11.1965" stroke="#292D32" stroke-width="1.5" stroke-linecap="round" stroke-linejoin="round"/>
<path d="M12 8.45654V17.4565" stroke="#292D32" stroke-width="1.5" stroke-linecap="round" stroke-linejoin="round"/>
<path d="M22 12.9565C22 18.4765 17.52 22.9565 12 22.9565C6.48 22.9565 2 18.4765 2 12.9565C2 7.43654 6.48 2.95654 12 2.95654" stroke="#161B23" stroke-width="1.5" stroke-linecap="round" stroke-linejoin="round"/>
<path d="M17 3.95654V7.95654H21" stroke="#292D32" stroke-width="1.5" stroke-linecap="round" stroke-linejoin="round"/>
<path d="M22 2.95654L17 7.95654" stroke="#292D32" stroke-width="1.5" stroke-linecap="round" stroke-linejoin="round"/>
</svg>
