<svg width="15" height="15" viewBox="0 0 15 15" fill="none" xmlns="http://www.w3.org/2000/svg">
<path d="M3.72257 1.72501H11.4226C12.0642 1.72501 12.5892 2.25001 12.5892 2.89167V4.17501C12.5892 4.64167 12.2976 5.22501 12.0059 5.51667L9.49757 7.73334C9.14757 8.02501 8.91424 8.60834 8.91424 9.07501V11.5833C8.91424 11.9333 8.68091 12.4 8.38924 12.575L7.57257 13.1C6.81424 13.5667 5.76424 13.0417 5.76424 12.1083V9.01667C5.76424 8.60834 5.53091 8.08334 5.29757 7.79167L3.08091 5.45834C2.78924 5.16667 2.55591 4.64167 2.55591 4.29167V2.95001C2.55591 2.25001 3.08091 1.72501 3.72257 1.72501Z" stroke="#292D32" stroke-width="1.5" stroke-miterlimit="10" stroke-linecap="round" stroke-linejoin="round"/>
<path d="M6.9484 1.72501L4.07257 6.33334" stroke="#292D32" stroke-width="1.5" stroke-miterlimit="10" stroke-linecap="round" stroke-linejoin="round"/>
</svg>
