<svg width="25" height="25" viewBox="0 0 25 25" fill="none" xmlns="http://www.w3.org/2000/svg">
<path d="M9.71161 14.399C9.71161 15.369 10.4616 16.149 11.3816 16.149H13.2616C14.0616 16.149 14.7116 15.469 14.7116 14.619C14.7116 13.709 14.3116 13.379 13.7216 13.169L10.7116 12.119C10.1216 11.909 9.72162 11.589 9.72162 10.669C9.72162 9.82904 10.3716 9.13904 11.1716 9.13904H13.0516C13.9716 9.13904 14.7216 9.91904 14.7216 10.889" stroke="#292D32" stroke-width="1.5" stroke-linecap="round" stroke-linejoin="round"/>
<path d="M12.2116 8.14905V17.149" stroke="#292D32" stroke-width="1.5" stroke-linecap="round" stroke-linejoin="round"/>
<path d="M22.2116 12.649C22.2116 18.169 17.7316 22.649 12.2116 22.649C6.69161 22.649 2.21161 18.169 2.21161 12.649C2.21161 7.12905 6.69161 2.64905 12.2116 2.64905" stroke="#292D32" stroke-width="1.5" stroke-linecap="round" stroke-linejoin="round"/>
<path d="M22.2116 6.64905V2.64905H18.2116" stroke="#292D32" stroke-width="1.5" stroke-linecap="round" stroke-linejoin="round"/>
<path d="M17.2116 7.64905L22.2116 2.64905" stroke="#292D32" stroke-width="1.5" stroke-linecap="round" stroke-linejoin="round"/>
</svg>
