<svg width="211" height="77" viewBox="0 0 211 77" fill="none" xmlns="http://www.w3.org/2000/svg">
<path d="M0.24 59.8919V53.6519H6.96V11.4919H0.4V5.3319H19.76V53.6519H30.24V59.8919H0.24ZM19.76 11.8119V5.3319H50.16V11.8119H19.76ZM19.76 35.3319V28.9319H36.56V35.3319H19.76ZM43.44 19.9719C43.44 17.0919 42.88 15.0119 41.76 13.7319C40.6933 12.4519 38.8 11.8119 36.08 11.8119H50.16V25.7319H43.44V19.9719ZM23.12 28.9319C25.68 28.9319 27.4933 28.3186 28.56 27.0919C29.68 25.8652 30.24 23.8919 30.24 21.1719V17.9719H36.56V28.9319H23.12ZM30.24 43.0919C30.24 40.3719 29.68 38.3986 28.56 37.1719C27.4933 35.9452 25.68 35.3319 23.12 35.3319H36.56V47.4919H30.24V43.0919ZM55.7869 59.8919V53.8119H62.1869V24.5319H56.3469V18.4519H74.3469V53.8119H79.9469V59.8919H55.7869ZM67.7869 14.5319C65.6002 14.5319 63.8402 13.9186 62.5069 12.6919C61.1735 11.4119 60.5069 9.7319 60.5069 7.65189C60.5069 5.51856 61.1735 3.83856 62.5069 2.6119C63.8402 1.38523 65.6002 0.771897 67.7869 0.771897C69.9735 0.771897 71.7069 1.38523 72.9869 2.6119C74.3202 3.83856 74.9869 5.51856 74.9869 7.65189C74.9869 9.7319 74.3202 11.4119 72.9869 12.6919C71.7069 13.9186 69.9735 14.5319 67.7869 14.5319ZM112.228 59.8919V53.8119H116.788V31.9719C116.788 29.8386 116.228 28.2652 115.108 27.2519C113.988 26.2386 112.441 25.7319 110.468 25.7319C109.135 25.7319 107.855 26.0252 106.628 26.6119C105.455 27.1452 104.495 28.0519 103.748 29.3319C103.055 30.6119 102.708 32.3186 102.708 34.4519L100.708 34.5319C100.708 31.0119 101.161 27.9986 102.068 25.4919C102.975 22.9852 104.495 21.0919 106.628 19.8119C108.761 18.4786 111.641 17.8119 115.268 17.8119C119.268 17.8119 122.548 18.9052 125.108 21.0919C127.668 23.2786 128.948 26.7719 128.948 31.5719V53.8119H133.828V59.8919H112.228ZM84.0681 59.8919V53.8119H90.4681V24.5319H84.6281V18.4519H101.268V31.9719L102.708 31.7319V53.8119H107.268V59.8919H84.0681Z" fill="white"/>
<path d="M137.891 59.8919V53.8119H144.051V9.9719H138.291V3.8919H156.291V53.8119H161.891V59.8919H137.891ZM173.977 71.0119C175.204 71.0119 176.244 70.7719 177.097 70.2919C178.004 69.8119 178.804 69.0919 179.497 68.1319C180.244 67.2252 180.937 66.0786 181.577 64.6919L186.697 53.4119L187.817 51.5719L198.937 24.5319H192.217V18.4519H210.377V24.5319H206.537L191.097 60.9319C189.71 64.1852 188.244 66.9586 186.697 69.2519C185.204 71.5452 183.417 73.2786 181.337 74.4519C179.31 75.6786 176.777 76.2919 173.737 76.2919L173.977 71.0119ZM185.257 66.5319L167.337 24.5319H163.497V18.4519H187.257V24.5319H180.377L190.857 51.5719L185.257 66.5319ZM169.337 63.6519C170.884 63.6519 172.164 63.9986 173.177 64.6919C174.19 65.3852 174.697 66.4519 174.697 67.8919C174.697 69.3319 174.164 70.3452 173.097 70.9319C172.084 71.5719 170.857 71.9186 169.417 71.9719L169.097 69.1719C169.577 69.8119 170.217 70.2652 171.017 70.5319C171.87 70.8519 172.857 71.0119 173.977 71.0119L173.737 76.2919C170.59 76.2919 168.004 75.5719 165.977 74.1319C164.004 72.7452 163.017 70.9319 163.017 68.6919C163.017 67.0919 163.604 65.8386 164.777 64.9319C166.004 64.0786 167.524 63.6519 169.337 63.6519Z" fill="#F6E767"/>
</svg>
